<?xml version="1.0" encoding="iso-8859-1"?>
<!-- Generator: Adobe Illustrator 18.0.0, SVG Export Plug-In . SVG Version: 6.00 Build 0)  -->
<!DOCTYPE svg PUBLIC "-//W3C//DTD SVG 1.1//EN" "http://www.w3.org/Graphics/SVG/1.1/DTD/svg11.dtd">
<svg width="40px" height="40px" version="1.1" id="Capa_1" xmlns="http://www.w3.org/2000/svg" xmlns:xlink="http://www.w3.org/1999/xlink" x="0px" y="0px"
	 viewBox="0 0 56.043 56.043" style="enable-background:new 0 0 56.043 56.043;" xml:space="preserve">
<g>
	<path style="fill:#1D1D1B;" d="M55.629,11.105c-6.727-0.337-15.21-1.381-20.499,3.783c-4.014,3.919-5.009,10.08-1.483,14.652
		c0.131,0.17,0.271,0.325,0.409,0.484c-1.931,3.106-3.369,6.51-4.185,10.093c-0.759-4.017-2.512-7.961-5.008-11.277
		c2.407-4.793,1.073-11.19-2.334-15.146C17.577,7.943,8.2,8.585,1.331,8.336C0.942,8.322,0.728,8.703,0.753,9.035
		C0.24,9.119-0.221,9.668,0.114,10.261c2.399,4.24,4.594,8.442,6.23,13.045c1.104,3.105,2.074,6.465,4.609,8.756
		c3.997,3.612,10.06,2.402,13.098-1.854c0.188,0.256,0.384,0.495,0.565,0.765c3.282,4.903,4.119,10.328,4.23,16.105
		c0.017,0.863,1.21,0.815,1.308,0c0.086-0.712,0.131-1.434,0.143-2.161c0.778-5.006,2.418-9.646,4.909-13.768
		c3.187,2.655,7.611,2.922,11.279,0.512c6.8-4.469,5.423-12.91,9.114-19.25c0.095-0.164,0.114-0.317,0.102-0.462
		C56.171,11.834,56.166,11.132,55.629,11.105z M21.952,30.055c-3.401,3.61-8.772,2.681-11.456-1.222
		c-1.556-2.263-2.212-5.087-3.169-7.632c-1.529-4.065-3.594-7.863-5.711-11.645c4.945,0.609,10.475,0.358,15.1,2.145
		c5.682,2.196,9.496,9.886,6.973,15.695c-2.838-3.252-6.45-5.726-10.587-6.753c-0.324-0.08-0.518,0.365-0.227,0.54
		c3.786,2.284,7.24,4.378,10.059,7.622C22.647,29.238,22.327,29.657,21.952,30.055z M50.625,22.251
		c-1.708,6.001-8.464,12.934-14.543,7.526c2.51-3.74,5.76-7.013,9.77-9.675c0.746-0.496,0.063-1.695-0.708-1.211
		c-4.035,2.531-7.497,5.868-10.168,9.73c-4.053-4.983-1.116-11.912,4.316-14.645c4.204-2.116,9.811-1.653,14.627-1.887
		C51.971,15.223,51.629,18.725,50.625,22.251z"/>
</g>
<g>
</g>
<g>
</g>
<g>
</g>
<g>
</g>
<g>
</g>
<g>
</g>
<g>
</g>
<g>
</g>
<g>
</g>
<g>
</g>
<g>
</g>
<g>
</g>
<g>
</g>
<g>
</g>
<g>
</g>
</svg>
